<svg xmlns="http://www.w3.org/2000/svg" viewBox="0 0 32 32">
  <path d="M16 2 C16 2 10 10 10 16 C10 19.5 11.5 22 13 23.5 C13 21 14 19 16 18 C16 20 17 22 16 24 C18 22.5 19.5 20 19.5 17.5 C21 19 21.5 21 21 23.5 C22.5 22 24 19 24 16 C24 10 18 4 16 2Z" fill="#c0392b"/>
  <path d="M16 8 C16 8 12 13 12 17 C12 19.5 13.5 21.5 15 22.5 C15 21 15.5 19.5 16.5 18.5 C16.5 20 17 21.5 16.5 22.5 C17.5 21.5 18.5 20 18.5 18 C19.5 19 19.5 20.5 19 22.5 C20 21 21 19 21 17 C21 13 18 9 16 8Z" fill="#e67e22"/>
  <path d="M16 13 C16 13 14 15.5 14 17.5 C14 19 15 20 16 20.5 C17 20 18 19 18 17.5 C18 15.5 16 13 16 13Z" fill="#f39c12"/>
</svg>
